<?xml version="1.0" encoding="UTF-8" standalone="no"?>
<!-- Created with Inkscape (http://www.inkscape.org/) -->

<svg
   xmlns:dc="http://purl.org/dc/elements/1.1/"
   xmlns:cc="http://creativecommons.org/ns#"
   xmlns:rdf="http://www.w3.org/1999/02/22-rdf-syntax-ns#"
   xmlns:svg="http://www.w3.org/2000/svg"
   xmlns="http://www.w3.org/2000/svg"
   version="1.1"
   width="990"
   height="765"
   id="svg2"
   xml:space="preserve"><metadata
     id="metadata8"><rdf:RDF><cc:Work
         rdf:about=""><dc:format>image/svg+xml</dc:format><dc:type
           rdf:resource="http://purl.org/dc/dcmitype/StillImage" /><dc:title></dc:title></cc:Work></rdf:RDF></metadata><defs
     id="defs6"><clipPath
       id="clipPath18"><path
         d="M 0,612 792,612 792,0 0,0 0,612 z"
         id="path20" /></clipPath><clipPath
       id="clipPath26"><path
         d="m 36,576 720,0 0,-540 -720,0 0,540 z"
         id="path28" /></clipPath></defs><g
     transform="matrix(1.25,0,0,-1.25,0,765)"
     id="g10"><g
       id="g12">


<g
   transform="translate(0,0.25)"
   id="g30"><path
     d="m 612,63 c 0,0 27,-27 27,-27 0,0 113,0 113,0 0,0 -36,27 -36,27 0,0 -104,0 -104,0 z"
     id="path32"
     style="fill:#983366;fill-opacity:0.65880001;fill-rule:nonzero;stroke:none" /></g><path
   d="m 612,63.25 c 0,0 27,-27 27,-27 0,0 113,0 113,0 0,0 -36,27 -36,27 0,0 -104,0 -104,0 z"
   id="path34"
   style="fill:none;stroke:#000000;stroke-width:1;stroke-linecap:butt;stroke-linejoin:bevel;stroke-miterlimit:10;stroke-opacity:1;stroke-dasharray:none" /><g
   transform="translate(0,0.25)"
   id="g36"><path
     d="m 612,67 104,0 0,50 -104,0 0,-50 z"
     id="path38"
     style="fill:#0066ff;fill-opacity:0.65880001;fill-rule:nonzero;stroke:none" /></g><g
   transform="translate(0,0.25)"
   id="g40"><path
     d="m 612,67 104,0 0,50 -104,0 0,-50 z"
     id="path42"
     style="fill:none;stroke:#000000;stroke-width:1;stroke-linecap:butt;stroke-linejoin:bevel;stroke-miterlimit:10;stroke-opacity:1;stroke-dasharray:none" /></g><g
   transform="translate(0,0.25)"
   id="g44"><path
     d="m 720,67 c 0,0 36,-27 36,-27 0,0 0,50 0,50 0,0 -36,27 -36,27 0,0 0,-50 0,-50 z"
     id="path46"
     style="fill:#cb33cb;fill-opacity:0.65880001;fill-rule:nonzero;stroke:none" /></g><path
   d="m 720,67.25 c 0,0 36,-27 36,-27 0,0 0,50 0,50 0,0 -36,27 -36,27 0,0 0,-50 0,-50 z"
   id="path48"
   style="fill:none;stroke:#000000;stroke-width:1;stroke-linecap:butt;stroke-linejoin:bevel;stroke-miterlimit:10;stroke-opacity:1;stroke-dasharray:none" /><g
   transform="translate(0,0.25)"
   id="g50"><path
     d="m 612,121 c 0,0 27,-27 27,-27 0,0 113,0 113,0 0,0 -36,27 -36,27 0,0 -104,0 -104,0 z"
     id="path52"
     style="fill:#ffe346;fill-opacity:0.65880001;fill-rule:nonzero;stroke:none" /></g><path
   d="m 612,121.25 c 0,0 27,-27 27,-27 0,0 113,0 113,0 0,0 -36,27 -36,27 0,0 -104,0 -104,0 z"
   id="path54"
   style="fill:none;stroke:#000000;stroke-width:1;stroke-linecap:butt;stroke-linejoin:bevel;stroke-miterlimit:10;stroke-opacity:1;stroke-dasharray:none" /><g
   transform="translate(0,0.25)"
   id="g56"><path
     d="m 608,117 c 0,0 27,-27 27,-27 0,0 0,-50 0,-50 0,0 -27,27 -27,27 0,0 0,50 0,50 z"
     id="path58"
     style="fill:#00ff00;fill-opacity:0.65880001;fill-rule:nonzero;stroke:none" /></g><path
   d="m 608,117.25 c 0,0 27,-27 27,-27 0,0 0,-50 0,-50 0,0 -27,27 -27,27 0,0 0,50 0,50 z"
   id="path60"
   style="fill:none;stroke:#000000;stroke-width:1;stroke-linecap:butt;stroke-linejoin:bevel;stroke-miterlimit:10;stroke-opacity:1;stroke-dasharray:none" /><g
   transform="translate(0,0.25)"
   id="g62"><path
     d="m 639,40 113,0 0,50 -113,0 0,-50 z"
     id="path64"
     style="fill:#ff0000;fill-opacity:0.65880001;fill-rule:nonzero;stroke:none" /></g><g
   transform="translate(0,0.25)"
   id="g66"><path
     d="m 639,40 113,0 0,50 -113,0 0,-50 z"
     id="path68"
     style="fill:none;stroke:#000000;stroke-width:1;stroke-linecap:butt;stroke-linejoin:bevel;stroke-miterlimit:10;stroke-opacity:1;stroke-dasharray:none" /></g><g
   id="g70"><path
     d="m 140,238 490,0 0,176 -490,0 0,-176 z"
     id="path72"
     style="fill:#ffff98;fill-opacity:0.55690002;fill-rule:nonzero;stroke:none" /></g><g
   id="g74"><path
     d="m 36,252 639,0 0,4 -639,0 0,-4 z"
     id="path76"
     style="fill:#e40000;fill-opacity:0.8;fill-rule:nonzero;stroke:none" /></g><g
   id="g78"><path
     d="m 158,36 4,0 0,396 -4,0 0,-396 z"
     id="path80"
     style="fill:#0066ff;fill-opacity:0.8;fill-rule:nonzero;stroke:none" /></g><g
   id="g82"><path
     d="m 131,396 639,0 0,4 -639,0 0,-4 z"
     id="path84"
     style="fill:#e40000;fill-opacity:0.8;fill-rule:nonzero;stroke:none" /></g><g
   id="g86"><path
     d="m 608,185 4,0 0,391 -4,0 0,-391 z"
     id="path88"
     style="fill:#0066ff;fill-opacity:0.8;fill-rule:nonzero;stroke:none" /></g><text
   x="315.96094"
   y="-325.55554"
   transform="scale(1,-1)"
   id="text98"><tspan
     x="315.96094"
     y="-325.55554"
     id="tspan100"
     style="font-size:48px;font-variant:normal;font-weight:normal;writing-mode:lr-tb;fill:#000000;fill-opacity:1;fill-rule:nonzero;stroke:none;font-family:New Century Schoolbook;-inkscape-font-specification:New Century Schoolbook"><tspan
   id="tspan48"
   style="fill:#0066ff">B</tspan><tspan
   id="tspan50"
   style="fill:#e40000">e</tspan>PDF</tspan></text>
<text
   x="246.21094"
   y="-292.15555"
   transform="scale(1,-1)"
   id="text110"><tspan
     x="246.21094"
     y="-292.15555"
     id="tspan112"
     style="font-size:24px;font-variant:normal;font-weight:normal;writing-mode:lr-tb;fill:#000000;fill-opacity:1;fill-rule:nonzero;stroke:none;font-family:New Century Schoolbook;-inkscape-font-specification:New Century Schoolbook">The PDF Reader for Haiku</tspan></text>

</g></g></svg>